<mxfile host="app.diagrams.net" modified="2023-09-19T01:54:42.333Z" agent="Mozilla/5.0 (X11; Ubuntu; Linux x86_64; rv:109.0) Gecko/20100101 Firefox/115.0" version="21.7.5" etag="VMUU8eWYGPoX8TZdrKG4" type="github">
  <diagram name="Page-1" id="F23Lh6SQ8scQoQA43PuK">
    <mxGraphModel>
      <root>
        <mxCell id="0" />
        <mxCell id="1" parent="0" />
      </root>
    </mxGraphModel>
  </diagram>
</mxfile>
